HIERARCHY
ROOT Hips
{
	OFFSET -3.958830 18.904000 13.208200
	CHANNELS 6 Xposition Yposition Zposition Zrotation Yrotation Xrotation 
	JOINT LHipJoint
	{
		OFFSET 0.000000 0.000000 0.000000
		CHANNELS 3 Zrotation Yrotation Xrotation
		JOINT LeftUpLeg
		{
			OFFSET 1.800000 -1.400000 0.085000
			CHANNELS 3 Zrotation Yrotation Xrotation
			JOINT LeftLeg
			{
				OFFSET 2.215000 -6.000000 0.000000
				CHANNELS 3 Zrotation Yrotation Xrotation
				JOINT LeftFoot
				{
					OFFSET 2.500000 -6.900000 0.000000
					CHANNELS 3 Zrotation Yrotation Xrotation
					JOINT LeftToeBase
					{
						OFFSET 0.200000 -0.500000 1.950000
						CHANNELS 3 Zrotation Yrotation Xrotation
						End Site
						{
							OFFSET 0.000000 0.000000 0.000000
						}
					}
				}
			}
		}
	}
	JOINT RHipJoint
	{
		OFFSET 0.000000 0.000000 0.000000
		CHANNELS 3 Zrotation Yrotation Xrotation
		JOINT RightUpLeg
		{
			OFFSET -1.800000 -1.400000 0.085000
			CHANNELS 3 Zrotation Yrotation Xrotation
			JOINT RightLeg
			{
				OFFSET -2.215000 -6.000000 0.000000
				CHANNELS 3 Zrotation Yrotation Xrotation
				JOINT RightFoot
				{
					OFFSET -2.500000 -6.900000 0.000000
					CHANNELS 3 Zrotation Yrotation Xrotation
					JOINT RightToeBase
					{
						OFFSET -0.200000 -0.500000 1.950000
						CHANNELS 3 Zrotation Yrotation Xrotation
						End Site
						{
							OFFSET 0.000000 0.000000 0.000000
						}
					}
				}
			}
		}
	}
	JOINT LowerBack
	{
		OFFSET 0.000000 0.000000 0.000000
		CHANNELS 3 Zrotation Yrotation Xrotation
		JOINT Spine
		{
			OFFSET -0.087000 1.940000 -0.288900
			CHANNELS 3 Zrotation Yrotation Xrotation
			JOINT Spine1
			{
				OFFSET 0.000000 1.950000 0.060000
				CHANNELS 3 Zrotation Yrotation Xrotation
				JOINT Neck
				{
					OFFSET 0.000000 0.000000 0.000000
					CHANNELS 3 Zrotation Yrotation Xrotation
					JOINT Neck1
					{
						OFFSET 0.000000 1.600000 0.340000
						CHANNELS 3 Zrotation Yrotation Xrotation
						JOINT Head
						{
							OFFSET 0.000000 1.667000 -0.240000
							CHANNELS 3 Zrotation Yrotation Xrotation
							End Site
							{
								OFFSET 0.000000 0.000000 0.000000
							}
						}
					}
				}
				JOINT LeftShoulder
				{
					OFFSET 0.000000 0.000000 0.000000
					CHANNELS 3 Zrotation Yrotation Xrotation
					JOINT LeftArm
					{
						OFFSET 2.700000 1.550000 -0.730000
						CHANNELS 3 Zrotation Yrotation Xrotation
						JOINT LeftForeArm
						{
							OFFSET 5.450000 0.000000 0.000000
							CHANNELS 3 Zrotation Yrotation Xrotation
							JOINT LeftHand
							{
								OFFSET 3.450000 0.000000 0.000000
								CHANNELS 3 Zrotation Yrotation Xrotation
								JOINT LeftHandIndex1
								{
									OFFSET 0.750000 0.000000 0.000000
									CHANNELS 3 Zrotation Yrotation Xrotation
									End Site
									{
										OFFSET 0.000000 0.000000 0.000000
									}
								}
							}
						}
					}
				}
				JOINT RightShoulder
				{
					OFFSET 0.000000 0.000000 0.000000
					CHANNELS 3 Zrotation Yrotation Xrotation
					JOINT RightArm
					{
						OFFSET -2.700000 1.550000 -0.730000
						CHANNELS 3 Zrotation Yrotation Xrotation
						JOINT RightForeArm
						{
							OFFSET -5.450000 0.000000 0.000000
							CHANNELS 3 Zrotation Yrotation Xrotation
							JOINT RightHand
							{
								OFFSET -3.450000 0.000000 0.000000
								CHANNELS 3 Zrotation Yrotation Xrotation
								JOINT RightHandIndex1
								{
									OFFSET -0.750000 0.000000 0.000000
									CHANNELS 3 Zrotation Yrotation Xrotation
									End Site
									{
										OFFSET 0.000000 0.000000 0.000000
									}
								}
							}
						}
					}
				}
			}
		}
	}
}
MOTION
Frames: 9
Frame Time: 0.016667
-1.863460 17.302010 -2.479260 -136.038722 -81.433410 115.403173 -15.140634 13.474364 3.625361 7.958234 -2.797701 -10.169916 -16.742719 6.590352 8.634622 0.452137 4.771453 2.930861 -0.164390 -0.407490 0.536180 18.178618 -10.442511 2.843054 -10.812457 -5.472951 21.861109 5.112549 -8.435082 12.473451 -0.982371 -6.408189 2.164301 -0.451930 -0.118960 0.295220 -4.137075 -2.324412 -7.954698 16.934753 1.028799 27.852968 -2.512462 0.033208 35.351962 0.896352 -1.901562 -24.376272 -13.322616 21.293156 30.948746 -28.912580 37.962990 -13.255000 15.426046 -41.235141 8.049872 2.377694 -18.122472 -3.102518 9.975266 0.772789 -0.043206 -4.272168 3.006393 0.266050 0.168880 0.194480 -0.242370 -19.765886 25.341984 12.485833 77.242133 9.153506 -30.581909 -3.685077 71.319646 -16.762678 2.414058 -2.126477 -0.038440 -0.401540 -0.108210 -0.291760 
-1.977730 17.353070 -2.399990 -123.070370 -81.874522 101.833524 -14.930944 13.747811 3.497275 4.944224 -1.932596 -7.932207 -12.809584 6.180608 8.595711 0.381477 4.273354 3.088460 -0.172870 -0.434560 0.607180 18.344032 -10.554696 3.064718 -8.931979 -5.665122 22.591182 3.014864 -8.094495 13.338441 -1.016730 -6.349683 2.142474 -0.500020 -0.220490 0.326270 -4.828854 -0.100666 -7.956198 20.517150 1.676117 26.163712 -2.978598 -0.101504 38.728032 0.942193 0.771618 -25.883571 -7.834991 19.592532 35.541925 -32.578190 38.326290 -16.578180 21.046999 -45.908332 8.118793 3.128551 -15.892063 0.193775 7.217054 7.870549 -0.035987 -4.650620 2.588928 0.304620 0.134130 0.254070 -0.307090 -25.571671 26.768724 13.016790 80.268504 13.571089 -30.259322 -15.517917 68.469715 -24.486167 2.445126 -2.060869 -0.002360 -0.470600 -0.104990 -0.336450 
-2.059610 17.391830 -2.331250 -121.149861 -81.487755 99.302722 -14.964381 13.824872 3.389840 3.798002 -1.261929 -6.038946 -10.681177 5.976081 8.248572 0.373757 4.115439 3.133135 -0.154050 -0.415650 0.621070 18.331939 -10.572653 3.073190 -7.774316 -5.589780 22.745847 1.000623 -7.722610 14.736995 -1.013392 -6.341202 2.127372 -0.491810 -0.256810 0.337400 -4.479659 -0.511041 -7.945754 20.635677 2.502253 27.073833 -0.247870 -0.172151 40.211986 1.013692 -0.629330 -26.095929 -9.851300 18.917794 33.337269 -33.142910 37.128600 -16.254500 21.485539 -44.428329 11.953215 2.369614 -15.175888 0.353305 6.590569 8.896090 -0.120328 -4.569862 2.432425 0.288600 0.121990 0.260270 -0.320590 -25.416863 25.662704 12.870039 80.086413 13.282953 -33.172415 -27.172077 72.745552 -34.500930 2.422865 -1.864551 0.026280 -0.502730 -0.109610 -0.335200 
-2.150870 17.428320 -2.274660 -113.905513 -81.024600 92.168475 -14.793340 13.785964 3.281794 3.276339 -0.988279 -5.195863 -9.593777 5.924197 8.417457 0.377484 4.051634 3.167950 -0.145070 -0.428330 0.663280 18.541686 -10.600693 3.033551 -6.636859 -5.539071 22.165452 -0.384550 -7.472903 16.280311 -1.021537 -6.289438 2.147342 -0.508260 -0.289440 0.337500 -4.699321 0.591426 -7.980502 23.071717 2.855454 26.499454 -0.378159 0.710962 41.223278 1.631101 -0.261477 -26.536860 -7.991819 18.071351 33.996449 -34.785680 37.074310 -17.486200 24.801167 -45.075154 15.572724 0.640850 -12.989321 0.949386 6.344375 8.646822 -0.033889 -4.374624 2.276131 0.321040 0.100620 0.288970 -0.316000 -29.368580 24.313560 12.549153 82.589212 15.466701 -31.211301 -26.935005 67.210307 -31.449978 2.481874 -1.971838 0.021790 -0.509710 -0.138190 -0.352040 
-2.242510 17.446180 -2.198820 -108.397251 -80.160874 86.189348 -14.815331 13.721955 3.154887 4.281888 -0.911770 -4.576807 -10.354161 6.440229 10.116806 0.398963 4.330160 3.076543 -0.121720 -0.404370 0.644510 18.556373 -10.626697 2.958503 -5.848309 -5.651906 22.050571 -1.572481 -7.306768 18.105818 -1.027202 -6.341039 2.151900 -0.479370 -0.268290 0.316610 -4.326148 -0.252960 -7.874550 23.952552 2.233348 27.770510 0.671627 0.338051 40.398361 2.345250 -2.961659 -25.808934 -12.660322 18.296958 30.376258 -33.425810 35.552260 -16.441800 24.208311 -42.301855 19.479001 -3.835491 -13.709053 1.310958 6.464187 10.152216 -0.173610 -4.169347 2.304738 0.330170 0.093600 0.273770 -0.289480 -29.434124 21.677002 11.963970 83.206329 14.039306 -32.594347 -27.175623 69.602790 -32.525355 2.469669 -1.967078 0.006060 -0.469550 -0.141120 -0.340290 
-2.307140 17.459270 -2.112610 -107.357704 -79.689784 84.675516 -14.968885 13.753894 3.128406 4.554721 -0.674509 -3.497228 -9.982837 6.425297 9.816798 0.416832 4.353893 3.082415 -0.090940 -0.358560 0.592830 18.404570 -10.715928 2.822851 -6.896293 -5.362084 21.780499 -2.593592 -7.131212 19.591857 -1.018957 -6.358305 2.174223 -0.446910 -0.246940 0.268850 -3.933074 -1.686270 -7.702998 24.194096 1.234049 30.510052 1.267695 0.086890 38.544222 2.821770 -5.827733 -25.435117 -18.932075 18.654428 25.450981 -30.775750 33.473180 -14.588560 22.545970 -38.990655 22.731192 -8.503477 -13.407713 2.593661 6.406926 7.814890 0.068790 -3.686518 2.550368 0.335310 0.053870 0.256550 -0.249310 -28.366782 18.891554 11.009271 83.440776 11.939758 -34.571943 -28.573203 73.803979 -35.044993 2.472283 -1.898921 0.002230 -0.411480 -0.143770 -0.301480 
-2.365550 17.455660 -2.042800 -100.510964 -79.396113 77.410514 -14.828804 13.760156 3.119913 4.332737 -0.569931 -2.456320 -9.322508 6.472810 10.337258 0.420584 4.390737 3.070810 -0.089760 -0.368390 0.576470 18.532595 -10.968102 2.673011 -5.879953 -4.871770 19.081383 -5.365246 -6.539552 25.114641 -0.986305 -6.391511 2.167723 -0.451460 -0.236130 0.273040 -4.111244 -1.268255 -7.489786 26.348095 -0.219973 31.886194 -1.504535 0.774170 36.977860 3.253492 -6.084758 -24.986686 -19.022369 18.039280 24.059903 -29.035970 32.218500 -13.723190 24.041219 -37.590033 23.648230 -10.652074 -12.297803 3.850628 4.409452 6.979116 0.113098 -3.472369 2.624631 0.332120 0.050770 0.237190 -0.255060 -30.790395 16.630275 10.474910 87.001890 12.108140 -33.378668 -22.990072 70.444781 -29.088398 2.531473 -2.124189 0.009310 -0.413770 -0.126140 -0.296790 
-2.383910 17.470690 -1.976600 -99.677393 -78.494680 75.444637 -14.742208 13.828178 3.096036 5.228336 -0.275347 -0.994532 -8.744590 6.576081 10.591255 0.413622 4.514373 3.033092 -0.062290 -0.335210 0.583840 18.609218 -11.124629 2.587768 -3.155134 -4.047611 15.501227 -9.286266 -5.130756 31.949070 -1.006574 -6.532884 2.109985 -0.414950 -0.241350 0.258550 -4.251996 -0.943775 -7.312494 29.146111 -2.771511 35.090904 -4.875400 1.090347 34.967189 3.888398 -6.640429 -24.890949 -20.642370 17.272805 22.115396 -27.829700 30.197040 -13.275860 23.759717 -35.525628 24.688310 -12.953558 -10.870661 3.646898 6.217626 6.435741 0.129664 -3.427181 2.765444 0.334610 0.039230 0.232570 -0.254320 -31.733070 14.319147 9.368716 88.800243 11.417822 -33.023647 -19.114573 68.702044 -25.152256 2.559291 -2.239240 0.003680 -0.388150 -0.127230 -0.295040 
-2.381470 17.475120 -1.912140 -97.283148 -79.245011 71.151175 -15.030150 13.902256 3.204915 4.982881 -0.039974 1.066338 -9.000240 6.777189 10.533174 0.474603 4.708407 3.003043 0.017610 -0.228510 0.554170 18.306794 -11.193199 2.529764 -0.875915 -2.881946 12.280751 -13.624343 -3.217439 39.284618 -1.106027 -6.995277 1.971668 -0.329010 -0.186920 0.234230 -3.923316 -2.906805 -7.163614 26.223588 -4.615068 41.826740 -4.046018 0.211529 31.139778 3.340470 -8.046486 -24.499385 -25.193360 16.849217 16.641120 -23.647010 26.968180 -9.911380 20.918505 -30.775789 25.523494 -17.850964 -10.721081 2.833888 10.949728 4.208752 -0.025946 -3.335111 3.093321 0.288540 0.039320 0.202000 -0.182930 -27.831552 11.608990 7.566432 86.052580 7.479874 -35.289511 -21.650093 75.848942 -28.420782 2.486946 -2.129131 0.014570 -0.324920 -0.160720 -0.235140 
